<svg width="24" height="24" viewBox="0 0 24 24" fill="none" xmlns="http://www.w3.org/2000/svg">
<g id="Icon">
<path id="Icon_2" fill-rule="evenodd" clip-rule="evenodd" d="M15.6719 10.4H14.3999V6.40001C14.3999 5.96001 14.0399 5.60001 13.5999 5.60001H10.3999C9.9599 5.60001 9.5999 5.96001 9.5999 6.40001V10.4H8.3279C7.6159 10.4 7.2559 11.264 7.7599 11.768L11.4319 15.44C11.7439 15.752 12.2479 15.752 12.5599 15.44L16.2319 11.768C16.7359 11.264 16.3839 10.4 15.6719 10.4ZM6.3999 18.4C6.3999 18.84 6.7599 19.2 7.1999 19.2H16.7999C17.2399 19.2 17.5999 18.84 17.5999 18.4C17.5999 17.96 17.2399 17.6 16.7999 17.6H7.1999C6.7599 17.6 6.3999 17.96 6.3999 18.4Z" fill="#C3CAD9"/>
</g>
</svg>
