<svg xmlns="http://www.w3.org/2000/svg" width="113" height="28" viewBox="0 0 113 28" fill="none">
  <path d="M4.04883 15.9643H11.0729C14.1927 15.9643 16.721 13.4501 16.721 10.3479V0.689484L4.04883 15.9643Z" fill="url(#paint0_linear_4_4166)"/>
  <path d="M2.99798 10.6365C2.01225 9.44609 1.79274 7.86162 2.30898 6.49744C-0.0811585 10.1514 -0.762023 15.012 1.38829 19.9614C2.62401 22.803 4.90033 25.0786 7.7559 26.3175C10.9062 27.6857 14.0199 27.9202 16.8165 27.3098L2.99798 10.6365Z" fill="url(#paint1_linear_4_4166)"/>
  <path d="M2.7011 17.6333C2.15235 18.2295 1.69911 20.1414 2.21738 21.5035C0.815006 19.3593 0 16.8027 0 14.0561C0 6.49754 6.1603 0.371857 13.7616 0.371857C14.7778 0.371857 15.7696 0.480991 16.7229 0.689155L2.7011 17.6333Z" fill="url(#paint2_linear_4_4166)"/>
  <path d="M45.2856 26.8661H25.8657V0.720276H45.1718V4.79059H30.0729V11.85H44.5722V15.7344H30.0729V22.7554H45.2856V26.8641V26.8661Z" fill="#202020"/>
  <path d="M62.4294 8.45302H66.1853V26.8665H62.5046L62.3176 23.8794C61.7424 24.999 60.8461 25.858 59.6328 26.4562C58.4174 27.0544 57.1857 27.3535 55.9338 27.3535C53.1534 27.3778 50.875 26.531 49.0987 24.8131C47.3203 23.0952 46.4321 20.7044 46.4321 17.6426C46.4321 14.5807 47.3406 12.3071 49.1556 10.6014C50.9706 8.89562 53.255 8.04276 56.011 8.04276C57.3382 8.04276 58.5779 8.34187 59.7303 8.94008C60.8827 9.5383 61.7465 10.3467 62.3217 11.3673L62.4335 8.45302H62.4294ZM52.0254 13.2145C50.873 14.322 50.2978 15.7974 50.2978 17.6405C50.2978 19.4837 50.873 20.9651 52.0254 22.0847C53.1778 23.2044 54.6045 23.7662 56.3077 23.7662C57.4093 23.7662 58.393 23.5419 59.2568 23.0932C60.1206 22.6446 60.7709 22.0605 61.2099 21.337C61.649 20.6155 61.9741 19.8252 62.1875 18.9643C62.401 18.1054 62.401 17.2404 62.1875 16.3693C61.9741 15.4983 61.649 14.702 61.2099 13.9785C60.7709 13.257 60.1206 12.6709 59.2568 12.2222C58.393 11.7735 57.4093 11.5492 56.3077 11.5492C54.6045 11.5492 53.1778 12.103 52.0254 13.2105V13.2145Z" fill="#202020"/>
  <path d="M83.6619 8.45267V10.2453L74.3473 23.0929H83.7371V26.8661H68.4126V25.2978L77.9915 11.9632H69.0528V8.45267H83.664H83.6619Z" fill="#202020"/>
  <path d="M87.6069 0.944356C88.4077 0.546217 89.2105 0.546217 90.0113 0.944356C90.8121 1.3425 91.2125 2.03974 91.2125 3.0361C91.2125 4.03246 90.8121 4.73577 90.0113 5.14604C89.2105 5.5563 88.4077 5.5563 87.6069 5.14604C86.8062 4.73577 86.4058 4.03246 86.4058 3.0361C86.4058 2.03974 86.8062 1.3425 87.6069 0.944356ZM86.8549 8.37764V26.8658H90.7226V8.37764H86.8549Z" fill="#202020"/>
  <path d="M110.316 10.8228C112.106 12.6538 113 14.9376 113 17.676C113 20.4145 112.118 22.7245 110.352 24.5293C108.586 26.334 106.265 27.2374 103.385 27.2374C100.505 27.2374 98.2267 26.334 96.4747 24.5293C94.7227 22.7245 93.8447 20.4388 93.8447 17.676C93.8447 14.9133 94.7268 12.6215 96.493 10.8046C98.2592 8.9877 100.556 8.07825 103.385 8.07825C106.214 8.07825 108.525 8.99377 110.316 10.8228ZM99.2734 13.3814C98.2348 14.5515 97.7145 15.9844 97.7145 17.676C97.7145 19.3676 98.2287 20.7884 99.2551 21.9343C100.281 23.0802 101.659 23.6522 103.387 23.6522C105.115 23.6522 106.499 23.0802 107.537 21.9343C108.576 20.7884 109.096 19.3696 109.096 17.676C109.096 15.9824 108.558 14.5819 107.48 13.3996C106.403 12.2173 105.039 11.6251 103.387 11.6251C101.735 11.6251 100.314 12.2112 99.2734 13.3814Z" fill="#202020"/>
  <defs>
    <linearGradient id="paint0_linear_4_4166" x1="12.5932" y1="15.7602" x2="8.84582" y2="3.00419" gradientUnits="userSpaceOnUse">
      <stop stop-color="#FF9002"/>
      <stop offset="0.57" stop-color="#E93D00"/>
      <stop offset="1" stop-color="#960B08"/>
    </linearGradient>
    <linearGradient id="paint1_linear_4_4166" x1="16.8165" y1="17.0633" x2="0.0936304" y2="17.0633" gradientUnits="userSpaceOnUse">
      <stop stop-color="#FF9002"/>
      <stop offset="0.57" stop-color="#E93D00"/>
      <stop offset="1" stop-color="#960B08"/>
    </linearGradient>
    <linearGradient id="paint2_linear_4_4166" x1="8.36143" y1="21.5035" x2="8.36143" y2="0.371857" gradientUnits="userSpaceOnUse">
      <stop stop-color="#F4D65E"/>
      <stop offset="0.57" stop-color="#E5B32E"/>
      <stop offset="1" stop-color="#F6822B"/>
    </linearGradient>
  </defs>
</svg>