<svg xmlns="http://www.w3.org/2000/svg" width="31" height="30" viewBox="0 0 31 30" fill="none">
  <path fill-rule="evenodd" clip-rule="evenodd" d="M18.8341 17.0006H18.0441L17.7641 16.7306C18.9641 15.3306 19.5841 13.4206 19.2441 11.3906C18.7741 8.61063 16.4541 6.39063 13.6541 6.05063C9.42412 5.53063 5.86412 9.09063 6.38412 13.3206C6.72412 16.1206 8.94412 18.4406 11.7241 18.9106C13.7541 19.2506 15.6641 18.6306 17.0641 17.4306L17.3341 17.7106V18.5006L21.5841 22.7506C21.9941 23.1606 22.6641 23.1606 23.0741 22.7506C23.4841 22.3406 23.4841 21.6706 23.0741 21.2606L18.8341 17.0006ZM12.8341 17.0006C10.3441 17.0006 8.33412 14.9906 8.33412 12.5006C8.33412 10.0106 10.3441 8.00063 12.8341 8.00063C15.3241 8.00063 17.3341 10.0106 17.3341 12.5006C17.3341 14.9906 15.3241 17.0006 12.8341 17.0006Z" fill="#C3CAD9"/>
</svg>