<svg xmlns="http://www.w3.org/2000/svg" width="31" height="30" viewBox="0 0 31 30" fill="none">
  <path fill-rule="evenodd" clip-rule="evenodd" d="M9.6665 13C8.5665 13 7.6665 13.9 7.6665 15C7.6665 16.1 8.5665 17 9.6665 17C10.7665 17 11.6665 16.1 11.6665 15C11.6665 13.9 10.7665 13 9.6665 13ZM21.6665 13C20.5665 13 19.6665 13.9 19.6665 15C19.6665 16.1 20.5665 17 21.6665 17C22.7665 17 23.6665 16.1 23.6665 15C23.6665 13.9 22.7665 13 21.6665 13ZM15.6665 13C14.5665 13 13.6665 13.9 13.6665 15C13.6665 16.1 14.5665 17 15.6665 17C16.7665 17 17.6665 16.1 17.6665 15C17.6665 13.9 16.7665 13 15.6665 13Z" fill="#C3CAD9"/>
</svg>